<?xml version="1.0" encoding="utf-8"?>
<!-- Generator: Adobe Illustrator 16.0.0, SVG Export Plug-In . SVG Version: 6.00 Build 0)  -->
<!DOCTYPE svg PUBLIC "-//W3C//DTD SVG 1.1//EN" "http://www.w3.org/Graphics/SVG/1.1/DTD/svg11.dtd">
<svg version="1.1" xmlns="http://www.w3.org/2000/svg" xmlns:xlink="http://www.w3.org/1999/xlink" x="0px" y="0px" width="70px"
	 height="70px" viewBox="90.5 0.5 70 70" enable-background="new 90.5 0.5 70 70" xml:space="preserve">
<g id="Layer_1" display="none">
	<path display="inline" fill="#EBA2DE" d="M125.855,64.133l-6.108-10.736c-0.021-0.038-0.04-0.078-0.054-0.118l-0.485-1.366
		c-0.11-0.309-0.004-0.651,0.26-0.845l16.824-12.319c0.22-0.16,0.509-0.188,0.755-0.07l1.412,0.671
		c0.273,0.13,0.439,0.419,0.418,0.721c-1.119,15.498-8.199,22.499-12.133,24.366C126.415,64.592,126.035,64.449,125.855,64.133z"/>
	<path display="inline" fill="#EBA2DE" d="M95.071,31.63c9.035-10.209,19.978-11.764,24.521-11.239
		c0.084,0.01,0.161,0.035,0.236,0.072l1.151,0.581c0.423,0.213,0.539,0.765,0.238,1.131l-14.312,17.379
		c-0.221,0.269-0.601,0.346-0.91,0.188l-0.346-0.18l-10.429-6.838C94.849,32.481,94.777,31.963,95.071,31.63z"/>
	<path display="inline" fill="#C94C9B" d="M115.977,54.578L104.54,43.43c-0.208-0.201-0.279-0.508-0.177-0.779
		c0.382-1.022,0.811-2.053,1.286-3.086c3.029-6.598,7.901-13.339,14.066-19.157c4.685-4.421,10.117-8.31,16.055-11.197
		c5.797-2.82,12.076-4.684,18.611-5.159c0.438-0.032,0.803,0.331,0.771,0.769c-0.414,5.923-1.979,12.241-4.887,18.458
		c-2.635,5.632-6.371,11.183-11.354,16.285c-5.062,5.184-11.411,9.903-19.196,13.775c-0.953,0.475-1.927,0.936-2.923,1.383
		C116.516,54.848,116.193,54.789,115.977,54.578z"/>
	<path display="inline" fill="#EBA2DE" d="M135.77,9.211c5.797-2.82,12.076-4.684,18.61-5.159c0.438-0.032,0.804,0.331,0.772,0.769
		c-0.414,5.923-1.979,12.241-4.887,18.458L135.77,9.211z"/>
	<circle display="inline" fill="#EBA2DE" cx="134.911" cy="24.061" r="4.801"/>
	<path display="inline" fill="none" stroke="#8C0072" stroke-linecap="round" stroke-miterlimit="10" d="M103.508,47.168
		l-7.988,8.065"/>
	<path display="inline" fill="none" stroke="#8C0072" stroke-linecap="round" stroke-miterlimit="10" d="M104.199,54.926
		l-7.989,8.066"/>
	<path display="inline" fill="none" stroke="#8C0072" stroke-linecap="round" stroke-miterlimit="10" d="M112.187,55.234
		l-7.988,8.064"/>
</g>
<g id="Layer_2" display="none">
	<path display="inline" fill="#EBA2DE" d="M150.041,5.452h-49.083v60.096h49.083V5.452z"/>
	<path display="inline" fill="none" stroke="#8C0072" stroke-linecap="round" stroke-miterlimit="10" d="M121.972,37.192h19.215"/>
	<path display="inline" fill="none" stroke="#8C0072" stroke-linecap="round" stroke-miterlimit="10" d="M121.972,22.653h19.215"/>
	<path display="inline" fill="none" stroke="#8C0072" stroke-linecap="round" stroke-miterlimit="10" d="M121.972,51.729h19.215"/>
	<path display="inline" fill="none" stroke="#8C0072" stroke-linecap="round" stroke-miterlimit="10" d="M108.802,19.343
		l2.663,3.598l6.478-7.412"/>
	<path display="inline" fill="none" stroke="#8C0072" stroke-linecap="round" stroke-miterlimit="10" d="M108.802,19.343
		l2.663,3.598l6.478-7.412"/>
	<path display="inline" fill="none" stroke="#8C0072" stroke-linecap="round" stroke-miterlimit="10" d="M108.802,34.384l2.663,3.6
		l6.478-7.414"/>
	<path display="inline" fill="none" stroke="#8C0072" stroke-linecap="round" stroke-miterlimit="10" d="M108.802,34.384l2.663,3.6
		l6.478-7.414"/>
	<path display="inline" fill="none" stroke="#8C0072" stroke-linecap="round" stroke-miterlimit="10" d="M108.802,49.498
		l2.663,3.671l6.478-7.485"/>
	<path display="inline" fill="none" stroke="#8C0072" stroke-linecap="round" stroke-miterlimit="10" d="M108.802,49.498
		l2.663,3.671l6.478-7.485"/>
</g>
<g id="Layer_3" display="none">
	<path display="inline" fill="#EBA2DE" d="M103.131,24.733c-2.01,7.54-6.115,17.677-6.702,29.908
		c-0.587,12.147-1.424,12.147,4.608,12.147c6.031,0,17.174,0.67,24.463,0.587c8.628-0.084,18.431-0.838,24.798-6.954
		c6.367-6.115,6.115-12.482,0-16.504c-6.116-4.021-14.41-4.691-22.788-2.43c-8.377,2.346-14.912,9.049-14.912,9.049l0.587-25.804
		c0,0,3.687-2.597,7.372-5.529s1.927-6.702,1.927-6.702s2.513-9.131-5.78-8.88c-10.054,0.251-10.892,6.2-11.896,9.802
		C103.215,18.869,103.131,24.733,103.131,24.733z"/>
	<path display="inline" fill="none" stroke="#8C0072" stroke-linecap="round" stroke-miterlimit="10" d="M122.82,12.502
		c-1.341,1.006-2.766,3.016-4.609,2.765c-1.926-0.251-5.277-0.419-5.863-1.508c-0.67-1.257-0.587-3.017,4.439-2.765"/>
	<path display="inline" fill="none" stroke="#8C0072" stroke-linecap="round" stroke-miterlimit="10" d="M122.82,12.502
		c-1.341,1.006-2.766,3.016-4.609,2.765c-1.926-0.251-5.277-0.419-5.863-1.508c-0.67-1.257-0.587-3.017,4.439-2.765"/>
	<path display="inline" fill="none" stroke="#8C0072" stroke-linecap="round" stroke-miterlimit="10" d="M137.396,54.643
		c0,0-3.434,1.257-6.785,1.257s-6.786-1.005-6.786-1.005"/>
	<path display="inline" fill="none" stroke="#8C0072" stroke-linecap="round" stroke-miterlimit="10" d="M137.396,54.643
		c0,0-3.434,1.257-6.785,1.257s-6.786-1.005-6.786-1.005"/>
</g>
<g id="Layer_4" display="none">
	<path display="inline" fill="#EBA2DE" d="M121.898,54.884c-5.269-4.457-6.888-4.943-11.751-9.807
		c-4.457-3.646-9.497-8.832-11.346-11.912c-0.242-0.405-0.324-0.811-0.486-1.216c-1.613-6.529,0.486-11.103,3.729-14.344
		c3.241-3.241,7.293-5.268,10.94-5.673c3.646-0.404,6.438-0.225,9.805,1.459c4.197,4.102,8.697,7.662,13.696,12.318
		c3.494,3.254,7.567,7.667,10.534,10.535l1.054,1.297c1.459,1.457,1.459,3.809,0,5.348c-1.459,1.459-3.81,1.459-5.349,0
		l-3.322-3.322l-0.081,0.08l3.323,3.322c1.457,1.459,1.457,3.811,0,5.35c-1.459,1.459-3.809,1.459-5.35,0l-3.322-3.322l-0.082,0.08
		l3.324,3.322c1.459,1.459,1.459,3.809,0,5.35c-1.459,1.459-3.647,1.621-5.187,0.162l-0.406-0.406l-3.2-3.096l-0.041,0.018
		l2.432,2.43l0.81,0.811c1.459,1.459,1.621,3.729,0.162,5.268c-1.458,1.459-3.808,1.459-5.349,0L121.898,54.884z"/>
	<path display="inline" fill="#C94C9B" d="M126.355,11.246c-4.052,0-12.155,4.862-12.155,4.862
		c-3.646,2.025-0.811,6.963,2.836,5.673c4.579-1.621,8.348-2.96,8.348-2.96l5.023,1.621l16.612,15.803
		c4.863-4.053,5.431-7.618,6.078-10.535c0.648-2.918-0.861-9.813-5.672-12.561C141.754,9.907,130.407,11.246,126.355,11.246z"/>
	<path display="inline" fill="none" stroke="#C94C9B" stroke-linecap="round" stroke-miterlimit="10" d="M128.383,50.427l3.24,3.242
		 M134.055,45.159l3.242,3.242 M139.322,39.487l3.241,3.24"/>
	<path display="inline" fill="#C94C9B" d="M107.798,38.351l-3.324,3.324c-1.457,1.457-3.807,1.457-5.348,0
		c-1.459-1.459-1.459-3.811,0-5.35l3.323-3.322c1.458-1.459,3.808-1.459,5.349,0C109.257,34.542,109.257,36.894,107.798,38.351z"/>
	<path display="inline" fill="#C94C9B" d="M113.228,43.78l-3.322,3.324c-1.459,1.457-3.809,1.457-5.35,0
		c-1.459-1.459-1.459-3.811,0-5.35l3.324-3.322c1.457-1.459,3.807-1.459,5.348,0C114.687,39.972,114.687,42.323,113.228,43.78z"/>
	<path display="inline" fill="#C94C9B" d="M118.576,49.21l-3.323,3.322c-1.457,1.459-3.809,1.459-5.348,0
		c-1.459-1.459-1.459-3.809,0-5.348l3.322-3.322c1.459-1.459,3.809-1.459,5.349,0C120.034,45.319,120.034,47.751,118.576,49.21z"/>
	<path display="inline" fill="#C94C9B" d="M121.737,56.909l-1.055,0.973c-1.457,1.459-3.807,1.459-5.348,0
		c-1.459-1.459-1.459-3.809,0-5.35l0.973-0.971c1.459-1.459,3.809-1.459,5.349,0C123.196,53.019,123.196,55.45,121.737,56.909z"/>
	<path display="inline" fill="none" stroke="#8C0072" stroke-linecap="round" stroke-miterlimit="10" d="M104.476,41.917
		l4.052-4.053 M110.147,47.185l3.242-3.242 M115.415,52.452l1.215-1.217"/>
</g>
<g id="Layer_5" display="none">
	<path display="inline" fill="#EBA2DE" d="M131.854,52.849c0,0,16.423-6.979,20.117-7.801c3.695-0.82,4.517,3.285,2.463,4.518
		c-2.053,1.23-6.157,2.463-6.157,2.463l-11.165,5.091l-11.989,3.694L131.854,52.849z"/>
	<path display="inline" fill="#EBA2DE" d="M92.029,59.829c-0.715-6.569,3.304-8.684,10.513-11.742
		c3.038-1.314,12.727-4.188,16.833,0c0,0,4.27,1.149,5.255,1.231c0.062,0.006,0.155,0.011,0.274,0.017
		c1.535,0.08,7.438,0.387,7.158,5.475c0.914-0.222,16.383-3.971,21.961-5.244c5.75-1.314,6.568,5.09,2.462,6.732
		s-20.359,7.063-26.437,8.047c-7.578,1.213-15.64,4.105-23.24,4.105C102.704,68.45,92.745,66.397,92.029,59.829z"/>
	<path display="inline" fill="none" stroke="#C94C9B" stroke-linecap="round" stroke-miterlimit="10" d="M132.676,54.492
		c0,0,15.025-3.859,20.527-4.927c1.166-0.227,2.463-0.41,4.105,0"/>
	<path display="inline" fill="none" stroke="#C94C9B" stroke-linecap="round" stroke-miterlimit="10" d="M113.79,53.671
		c4.524,2.313,9.443,2.873,14.78,2.873c5.338,0,4.927-5.834,0.82-6.568c-4.104-0.736-6.979-0.411-10.673-2.053"/>
	<path display="inline" fill="#8C0072" d="M123.07,12.567c0,0-1.314-2.545-1.97-3.12c-0.575-0.575-3.039-1.807-3.039-1.807
		s2.546-1.396,3.203-2.053s1.806-3.038,1.806-3.038s1.15,2.463,1.807,3.038c0.657,0.657,3.202,1.971,3.202,1.971
		s-2.463,1.314-3.12,1.889C124.384,10.104,123.07,12.567,123.07,12.567z"/>
	<path display="inline" fill="#8C0072" d="M145.229,29.03c0,0-2.16-4.171-3.203-5.214s-5.065-3.054-5.065-3.054
		s4.246-2.235,5.289-3.277c0.968-0.969,2.905-4.917,2.905-4.917s1.936,4.022,2.904,4.991c1.043,1.043,5.289,3.278,5.289,3.278
		s-4.097,2.085-5.14,3.128C147.314,24.933,145.229,29.03,145.229,29.03z"/>
	<path display="inline" fill="#8C0072" d="M126.517,45.898c0,0-1.561-3.12-2.381-3.859c-0.739-0.739-3.777-2.299-3.777-2.299
		s3.202-1.643,4.023-2.463c0.738-0.74,2.135-3.696,2.135-3.696s1.479,2.956,2.217,3.696c0.821,0.82,3.942,2.463,3.942,2.463
		s-3.039,1.56-3.86,2.299C127.995,42.86,126.517,45.898,126.517,45.898z"/>
</g>
<g id="Layer_6">
	<path fill="#EBA2DE" d="M114.971,33.415c-0.069-0.345-0.275-1.997-1.721-3.03c-0.276-0.207-1.377-0.964-2.616-0.689
		c-1.034,0.276-1.653,1.102-1.722,1.24c-1.721,2.547,1.309,7.711,3.167,10.811c0.689,1.17,1.377,2.135,2.135,3.098
		c1.033,1.239,2.341,2.686,3.098,3.582c0.552,0.619,0.62,1.307,0.62,1.721c0,3.235,0,17.489,0,17.559h16.87
		c0-0.069,0-11.155,0-15.699c0-1.308,0.277-2.548,0.758-3.719c0.068-0.138,0.138-0.275,0.206-0.482
		c1.309-3.374,2.135-3.58,1.929-8.813V27.148c0-1.653-1.238-2.961-2.823-2.961c-1.583,0-2.823,1.308-2.823,2.961
		c0-1.653-1.24-2.961-2.823-2.961c-1.584,0-2.823,1.308-2.823,2.961c0-1.653-1.239-2.961-2.823-2.961s-2.823,1.308-2.823,2.961
		v2.961v-2.754c0.138-1.722-1.239-3.099-2.823-3.099c-1.652,0-2.961,1.377-2.961,3.099v13.426"/>
	<path fill="none" stroke="#8C0072" stroke-linecap="round" stroke-miterlimit="10" d="M145.129,18.748l-5.231,3.305"/>
	<path fill="none" stroke="#8C0072" stroke-linecap="round" stroke-miterlimit="10" d="M137.349,10.898l-3.1,5.371"/>
	<path fill="none" stroke="#8C0072" stroke-linecap="round" stroke-miterlimit="10" d="M126.471,7.938l-0.069,6.266"/>
	<path fill="none" stroke="#8C0072" stroke-linecap="round" stroke-miterlimit="10" d="M107.671,18.748l5.234,3.305"/>
	<path fill="none" stroke="#8C0072" stroke-linecap="round" stroke-miterlimit="10" d="M115.384,10.898l3.167,5.371"/>
	<path fill="#C94C9B" d="M106.018,40.713c3.099-1.858,10.26-5.577,20.175-5.646c9.915-0.068,16.251,3.855,19.35,5.646v-6.054
		c-3.099-1.791-10.604-5.582-20.52-5.513c-9.916,0.069-17.146,3.787-20.175,5.646"/>
	<path fill="#EBA2DE" d="M117.312,48.426c0.552,0.619,0.62,1.307,0.62,1.721c0,3.235,0,17.489,0,17.559h16.87
		c0-0.069,0-11.155,0-15.699c0-1.308,0.275-2.548,0.758-3.719c0.068-0.138,0.138-0.275,0.206-0.482
		c1.309-3.374,2.135-3.58,1.929-8.813V27.148c0-1.653-1.238-2.961-2.824-2.961c-1.582,0-2.822,1.308-2.822,2.961
		c0-1.653-1.24-2.961-2.824-2.961c-1.583,0-2.822,1.308-2.822,2.961c0-1.653-1.239-2.961-2.823-2.961s-2.823,1.308-2.823,2.961
		v2.961v-2.754c0.137-1.722-1.239-3.099-2.823-3.099c-1.653,0-2.961,1.377-2.961,3.099v13.426"/>
	<path fill="#C94C9B" d="M150.301,23.854l-11.349,25.247l6.596,2.964l11.346-25.248L150.301,23.854z"/>
	<path fill="#C94C9B" d="M154.672,31.157l-7.339,16.329l5.404,2.429l7.339-16.329L154.672,31.157z"/>
	<path fill="#C94C9B" d="M100.562,23.79l-6.594,2.963l11.347,25.248l6.594-2.963L100.562,23.79z"/>
	<path fill="#C94C9B" d="M96.315,31.019l-5.587,2.511l7.338,16.33l5.587-2.511L96.315,31.019z"/>
</g>
<g id="Layer_7" display="none">
	<path display="inline" fill="#EBA2DE" d="M143.647,37.814c6.892-6.763,8.249-15.138,8.249-20.646v-1.775h-7.985v-3.549h-34.899
		v3.549h-7.985v1.775c0,5.508,1.355,13.883,8.249,20.646c1.295,7.058,7.229,12.492,14.524,13.027v5.595
		c-4.797,0.837-8.821,3.889-10.953,8.053h-3.834v5.323h34.899v-5.323h-3.837c-2.128-4.164-6.154-7.216-10.952-8.053v-5.595
		C136.418,50.307,142.354,44.872,143.647,37.814z M143.911,18.943h4.384c-0.228,3.868-1.271,8.677-4.384,13.104V18.943z
		 M109.012,32.047c-3.113-4.428-4.157-9.236-4.384-13.104h4.384V32.047z M124.584,39.439V24.934h-3.692v-2.922
		c3.537-0.461,4.46-2.922,4.46-2.922h3.844v20.349H124.584z"/>
	<path display="inline" fill="#8C0072" d="M110.22,10.366c0,0-1.183-2.307-1.775-2.899c-0.591-0.591-2.839-1.715-2.839-1.715
		s2.366-1.242,2.957-1.833c0.533-0.532,1.598-2.721,1.598-2.721s1.064,2.248,1.656,2.78c0.591,0.591,2.957,1.834,2.957,1.834
		s-2.306,1.183-2.838,1.714C111.403,8.059,110.22,10.366,110.22,10.366z"/>
	<path display="inline" fill="#8C0072" d="M142.222,47.926c0,0-1.601-3.074-2.366-3.844c-0.771-0.771-3.728-2.248-3.728-2.248
		s3.136-1.656,3.902-2.425c0.712-0.711,2.131-3.608,2.131-3.608s1.418,2.957,2.188,3.667c0.768,0.77,3.904,2.366,3.904,2.366
		s-3.018,1.538-3.786,2.309C143.758,44.909,142.222,47.926,142.222,47.926z"/>
	<path display="inline" fill="#8C0072" d="M109.214,55.972c0,0-1.183-2.248-1.775-2.84c-0.532-0.533-2.78-1.656-2.78-1.656
		s2.308-1.243,2.899-1.835c0.532-0.531,1.596-2.719,1.596-2.719s1.066,2.188,1.599,2.719c0.591,0.592,2.898,1.775,2.898,1.775
		s-2.249,1.125-2.84,1.716C110.397,53.724,109.214,55.972,109.214,55.972z"/>
</g>
<g id="Layer_8" display="none">
	<path display="inline" fill="#C94C9B" d="M125.454,60.426c6.249,0,11.313-10.402,11.313-23.234
		c0-12.833-11.313-23.235-11.313-23.235s-11.312,10.402-11.312,23.235C114.142,50.023,119.207,60.426,125.454,60.426z"/>
	<path display="inline" fill="#EBA2DE" d="M125.461,60.428c0,0,0.643-15.355-8.43-24.429c-9.074-9.074-24.429-8.431-24.429-8.431
		s-0.643,15.355,8.431,24.429C110.106,61.07,125.461,60.428,125.461,60.428z"/>
	<path display="inline" fill="#EBA2DE" d="M149.889,52.001c9.074-9.073,8.431-24.428,8.431-24.428s-15.354-0.644-24.428,8.43
		c-9.074,9.073-8.431,24.429-8.431,24.429S140.815,61.074,149.889,52.001z"/>
</g>
<g id="CP" display="none">
</g>
</svg>
