<?xml version="1.0" encoding="utf-8"?>
<!-- Generator: Adobe Illustrator 16.0.0, SVG Export Plug-In . SVG Version: 6.00 Build 0)  -->
<!DOCTYPE svg PUBLIC "-//W3C//DTD SVG 1.1//EN" "http://www.w3.org/Graphics/SVG/1.1/DTD/svg11.dtd">
<svg version="1.1" xmlns="http://www.w3.org/2000/svg" xmlns:xlink="http://www.w3.org/1999/xlink" x="0px" y="0px" width="70px"
	 height="70px" viewBox="0 0 70 70" enable-background="new 0 0 70 70" xml:space="preserve">
<g id="Layer_1" display="none">
	<g id="Layer_1_1_" display="inline">
		<path fill="#EBA2DE" d="M35.834,64.857l-6.109-10.736c-0.021-0.037-0.04-0.078-0.054-0.117l-0.485-1.365
			c-0.11-0.311-0.004-0.652,0.26-0.846L46.27,39.475c0.221-0.16,0.51-0.189,0.756-0.07l1.412,0.67
			c0.273,0.131,0.439,0.42,0.418,0.721c-1.119,15.498-8.199,22.5-12.133,24.367C36.393,65.316,36.014,65.174,35.834,64.857z"/>
		<path fill="#EBA2DE" d="M5.048,32.355c9.035-10.209,19.979-11.764,24.521-11.239c0.084,0.01,0.161,0.035,0.236,0.072l1.15,0.581
			c0.424,0.213,0.539,0.765,0.238,1.131L16.882,40.279c-0.221,0.268-0.6,0.346-0.909,0.188l-0.347-0.18L5.199,33.449
			C4.828,33.206,4.755,32.688,5.048,32.355z"/>
		<path fill="#C94C9B" d="M25.955,55.303L14.518,44.154c-0.208-0.201-0.278-0.508-0.177-0.779c0.382-1.021,0.811-2.053,1.285-3.086
			c3.029-6.598,7.901-13.338,14.066-19.156c4.686-4.421,10.118-8.31,16.055-11.197c5.797-2.82,12.076-4.684,18.611-5.159
			c0.438-0.032,0.803,0.331,0.771,0.769c-0.414,5.923-1.98,12.241-4.887,18.458c-2.637,5.632-6.371,11.184-11.355,16.285
			c-5.061,5.184-11.41,9.902-19.196,13.775C28.74,54.539,27.766,55,26.77,55.447C26.494,55.572,26.171,55.514,25.955,55.303z"/>
		<path fill="#EBA2DE" d="M45.748,9.936c5.797-2.82,12.076-4.684,18.609-5.159c0.439-0.032,0.805,0.331,0.773,0.769
			c-0.414,5.923-1.98,12.241-4.887,18.458L45.748,9.936z"/>
		<circle fill="#EBA2DE" cx="44.889" cy="24.786" r="4.801"/>
		<path fill="none" stroke="#8C0072" stroke-linecap="round" stroke-miterlimit="10" d="M13.486,47.893l-7.988,8.064"/>
		<path fill="none" stroke="#8C0072" stroke-linecap="round" stroke-miterlimit="10" d="M14.177,55.65l-7.989,8.066"/>
		<path fill="none" stroke="#8C0072" stroke-linecap="round" stroke-miterlimit="10" d="M22.166,55.959l-7.988,8.064"/>
	</g>
</g>
<g id="Layer_2_1_" display="none">
	<path display="inline" fill="#EBA2DE" d="M5.811,13.746c-2.558,0-4.716,2.078-4.716,4.716v39.25c0,2.558,2.078,4.716,4.716,4.716
		h58.515c2.559,0,4.716-2.078,4.716-4.716v-39.33c0-2.558-2.077-4.716-4.716-4.716H5.811V13.746z"/>
	<path display="inline" fill="none" stroke="#EBA2DE" stroke-width="2.5" stroke-miterlimit="10" d="M26.595,15.984V9.509
		c0-1.999,1.599-3.677,3.677-3.677h9.513c1.998,0,3.677,1.599,3.677,3.677v6.475"/>
	<path display="inline" fill="#C94C9B" d="M27.015,38.389l-15.211,6.717l3.747,8.482l15.21-6.717L27.015,38.389z"/>
	<path display="inline" fill="#C94C9B" d="M21.599,22.521l-2.973,8.784l15.749,5.33l2.973-8.783L21.599,22.521z"/>
</g>
<g id="Layer_3_1_" display="none">
	<path display="inline" fill="#EBA2DE" d="M19.476,40.872L33,48.681L20.778,69.85l-4.386-8.021l-9.139,0.212L19.476,40.872z"/>
	<path display="inline" fill="#EBA2DE" d="M50.03,40.872l-13.524,7.809L48.728,69.85l4.387-8.021l9.139,0.212L50.03,40.872z"/>
	<path display="inline" fill="#C94C9B" d="M42.241,51.46c-0.141,0.168-0.368,0.234-0.578,0.17l-6.75-2.057
		c-0.104-0.031-0.217-0.031-0.32,0l-6.753,2.059c-0.208,0.063-0.435-0.003-0.577-0.168l-4.656-5.41
		c-0.069-0.08-0.16-0.139-0.261-0.168L15.65,43.89c-0.205-0.061-0.356-0.236-0.387-0.447l-1.022-7.028
		c-0.015-0.103-0.058-0.198-0.125-0.276l-4.602-5.42c-0.137-0.162-0.169-0.387-0.083-0.58l2.875-6.451
		c0.042-0.094,0.057-0.197,0.043-0.298l-0.959-7.032c-0.028-0.21,0.067-0.419,0.245-0.535l5.937-3.867
		c0.091-0.058,0.16-0.141,0.203-0.238l2.871-6.502c0.088-0.199,0.285-0.328,0.502-0.328h7.078c0.105,0,0.209-0.03,0.297-0.087
		L34.456,1c0.181-0.116,0.413-0.116,0.593,0l5.935,3.8c0.088,0.057,0.191,0.087,0.297,0.087h7.013c0.216,0,0.412,0.126,0.501,0.324
		l2.938,6.508c0.043,0.096,0.112,0.177,0.201,0.235l5.936,3.866c0.179,0.117,0.275,0.328,0.244,0.54l-1.021,7.024
		c-0.016,0.104,0,0.211,0.043,0.307l2.938,6.445c0.088,0.194,0.057,0.421-0.082,0.583l-4.6,5.418
		c-0.066,0.078-0.109,0.174-0.125,0.276l-1.021,7.026c-0.031,0.213-0.182,0.388-0.389,0.449l-6.761,1.996
		c-0.103,0.029-0.194,0.09-0.263,0.171L42.241,51.46z"/>
	<circle display="inline" fill="#EBA2DE" cx="34.753" cy="26.273" r="15.278"/>
	<path display="inline" fill="#8C0072" d="M34.753,16.427l2.21,6.803h7.153l-5.786,4.205l2.21,6.803l-5.787-4.205l-5.787,4.205
		l2.21-6.803L25.39,23.23h7.152L34.753,16.427z"/>
</g>
<g id="Layer_4_1_" display="none">
	<path display="inline" fill="#EBA2DE" d="M41.506,51.445c0,0,16.636-7.07,20.379-7.902c3.744-0.832,4.575,3.328,2.496,4.576
		c-2.08,1.246-6.239,2.496-6.239,2.496l-11.311,5.156l-12.145,3.744L41.506,51.445z"/>
	<path display="inline" fill="#EBA2DE" d="M1.161,58.516c-0.725-6.654,3.347-8.797,10.65-11.895c3.078-1.33,12.894-4.242,17.053,0
		c0,0,4.325,1.166,5.323,1.248c0.063,0.004,0.157,0.01,0.278,0.016c1.555,0.082,7.535,0.393,7.253,5.547
		c0.926-0.225,16.594-4.021,22.246-5.313c5.826-1.332,6.653,5.156,2.494,6.82s-20.625,7.152-26.781,8.152
		C32,64.32,23.833,67.25,16.134,67.25C11.975,67.25,1.886,65.172,1.161,58.516z"/>
	<path display="inline" fill="none" stroke="#8C0072" stroke-width="1.5" stroke-linecap="round" stroke-miterlimit="10" d="
		M42.336,53.109c0,0,15.224-3.91,20.797-4.99c1.182-0.23,2.496-0.416,4.159,0"/>
	<path display="inline" fill="none" stroke="#8C0072" stroke-width="1.5" stroke-linecap="round" stroke-miterlimit="10" d="
		M23.205,52.277c4.584,2.342,9.567,2.912,14.973,2.912c5.407,0,4.991-5.91,0.832-6.654c-4.16-0.746-7.071-0.416-10.814-2.08"/>
	<path display="inline" fill="#C94C9B" d="M35.648,2.75c-9.282,0-16.807,7.524-16.807,16.807c0,9.281,7.525,16.806,16.807,16.806
		c9.281,0,16.807-7.525,16.807-16.806C52.455,10.275,44.93,2.75,35.648,2.75z M42.583,20.393h-6.149v6.151
		c0,0.414-0.336,0.75-0.75,0.75s-0.75-0.336-0.75-0.75v-6.151h-6.217c-0.414,0-0.75-0.336-0.75-0.75s0.336-0.75,0.75-0.75h6.217
		v-6.151c0-0.414,0.336-0.75,0.75-0.75s0.75,0.336,0.75,0.75v6.151h6.149c0.414,0,0.75,0.336,0.75,0.75S42.997,20.393,42.583,20.393
		z"/>
</g>
<g id="Layer_5_1_" display="none">
	<circle display="inline" fill="#C94C9B" cx="37.383" cy="13.401" r="9.257"/>
	<path display="inline" fill="#EBA2DE" d="M25.862,18.545c-0.951-4.695-5.102-8.229-10.079-8.229v10.98
		c-3.786,2.19-6.81,5.552-8.573,9.59H1.384v14.399h5.056c2.22,7.07,8.154,12.493,15.516,13.987v6.583h8.227v-6.172h10.286v6.172
		h8.227v-7.112c7.069-2.221,12.494-8.153,13.989-15.515h6.582v-6.171h-6.271c-1.033-10.396-9.804-18.514-20.47-18.514H26.069
		C26,18.544,25.931,18.544,25.862,18.545z"/>
	<circle display="inline" fill="#C94C9B" cx="16.811" cy="29.857" r="3.086"/>
</g>
<g id="Layer_6_1_" display="none">
	<path display="inline" fill="#C94C9B" d="M35.079,57.689c12.531,0,22.69-10.158,22.69-22.69c0-12.531-10.159-22.69-22.69-22.69
		S12.389,22.469,12.389,35C12.389,47.531,22.548,57.689,35.079,57.689z"/>
	<path display="inline" fill="#EBA2DE" d="M21.338,53.058c0.6-0.462,0.942-1.193,0.942-2.024c0-1.437,1.125-2.563,2.563-2.563h0.062
		c2.188,0,4-1.813,4-4.001c0-2.188-1.812-4.001-4-4.001h-3.125c-2.188,0-4.001-1.813-4.001-4h5.063c0-1.438,1.125-2.563,2.563-2.563
		c1.437,0,2.563-1.125,2.563-2.563c0-1.438,1.124-2.563,2.563-2.563h0.375c2.188,0,4.001-1.813,4.001-4.001
		c0-3.696-3.159-4.039-3.827-4.065c0.491,0,0.552,0-0.019-0.001c-0.087-0.002-0.123,0-0.093,0h0.093l0.019,0.001
		c-1.939,0-10.61,0.001-13.634,0.002c-3.164,3.9-5.059,8.871-5.059,14.284C12.389,42.366,15.899,48.912,21.338,53.058z"/>
	<path display="inline" fill="#EBA2DE" d="M57.77,35c0,6.311-2.576,12.02-6.734,16.133c-0.134-0.299-0.253-0.601-0.369-0.896
		c-0.642-1.621-1.219-3.079-3.632-3.079c-1.438,0-2.563-1.125-2.563-2.563c0-1.438-1.125-2.562-2.563-2.562h0.126
		c-2.188,0-4.001-1.813-4.001-4.001s1.813-4,4.001-4h3.875c1.438,0,2.563-1.125,2.563-2.563c0-1.437,1.126-2.562,2.563-2.562h5.906
		C57.48,30.844,57.77,32.888,57.77,35z"/>
	<path display="inline" fill="#EBA2DE" d="M55.312,24.717h-9.027c0-1.438-1.125-2.563-2.563-2.563h-2.813c-1.687,0-3-1.313-3-3
		s1.375-3,3-3h6.811C50.922,18.307,53.548,21.255,55.312,24.717z"/>
	<path display="inline" fill="none" stroke="#8C0072" stroke-width="1.5" stroke-linecap="round" stroke-miterlimit="10" d="
		M63.238,35.641l-1.154-3.343l2.613-1.458"/>
	<path display="inline" fill="none" stroke="#8C0072" stroke-width="1.5" stroke-linecap="round" stroke-miterlimit="10" d="
		M62.205,32.48c3.708,1.398,6.143,2.998,6.143,4.821"/>
	<path display="inline" fill="none" stroke="#8C0072" stroke-width="1.5" stroke-linecap="round" stroke-miterlimit="10" d="
		M68.348,37.301c0,4.801-15.016,8.734-33.372,8.734c-18.355,0-33.186-3.892-33.186-8.632c0-2.138,3.007-4.134,7.988-5.618"/>
</g>
<g id="Layer_7_1_">
	<path fill="#EBA2DE" d="M30.042,63.762c14.846,0,26.883-12.035,26.883-26.882S44.889,9.998,30.042,9.998S3.161,22.033,3.161,36.88
		S15.196,63.762,30.042,63.762z"/>
	<path fill="none" stroke="#8C0072" stroke-width="2" stroke-linecap="round" stroke-miterlimit="10" d="M44.021,32.175
		c-0.471,2.353-2.554,4.099-5.04,4.099c-2.554,0-4.706-1.883-5.108-4.3"/>
	<path fill="none" stroke="#8C0072" stroke-width="2" stroke-linecap="round" stroke-miterlimit="10" d="M44.021,32.175
		c-0.471,2.353-2.554,4.099-5.04,4.099c-2.554,0-4.706-1.883-5.108-4.3"/>
	<path fill="none" stroke="#8C0072" stroke-width="2" stroke-linecap="round" stroke-miterlimit="10" d="M26.212,32.175
		c-0.47,2.353-2.554,4.099-5.041,4.099c-2.554,0-4.704-1.883-5.107-4.3"/>
	<path fill="none" stroke="#8C0072" stroke-width="2" stroke-linecap="round" stroke-miterlimit="10" d="M41.132,45.549
		c-1.075,3.898-5.646,6.787-11.223,6.787c-5.175,0-9.543-2.553-10.955-6.115"/>
	<path fill="#C94C9B" d="M55.446,8.25c-2.485-1.143-5.78-0.067-6.922,2.419c-1.142-2.487-4.436-3.562-6.923-2.419
		c-2.62,1.21-3.897,4.368-1.814,8.064c1.479,2.621,4.1,4.638,8.737,8.199c4.637-3.561,7.258-5.578,8.736-8.199
		C59.344,12.618,58.067,9.46,55.446,8.25z"/>
	<path fill="#C94C9B" d="M66.805,25.051c-1.277-0.605-2.958-0.067-3.563,1.21c-0.604-1.277-2.285-1.815-3.495-1.21
		c-1.343,0.605-2.016,2.218-0.94,4.1c0.739,1.344,2.084,2.352,4.436,4.167c2.352-1.814,3.696-2.822,4.437-4.167
		C68.82,27.27,68.148,25.656,66.805,25.051z"/>
	<path fill="#C94C9B" d="M13.313,12.504c-1.882-0.874-4.302-0.067-5.175,1.814c-0.874-1.882-3.293-2.688-5.175-1.814
		c-2.016,0.941-2.957,3.293-1.344,6.116c1.143,2.016,3.091,3.495,6.586,6.183c3.495-2.688,5.444-4.167,6.586-6.183
		C16.27,15.798,15.328,13.445,13.313,12.504z"/>
</g>
<g id="Layer_8_1_" display="none">
	<path display="inline" fill="#C94C9B" d="M36.78,68.069c17.615,0,31.894-14.279,31.894-31.894C68.674,18.56,54.396,4.28,36.78,4.28
		C19.166,4.28,4.886,18.56,4.886,36.176C4.886,53.79,19.166,68.069,36.78,68.069z"/>
	<path display="inline" fill="#EBA2DE" d="M55.079,10.608c0,0-6.499,0-8.037,0h-2.053c-2.223,0-4.105,1.795-4.105,4.104
		s1.797,4.104,4.105,4.104h3.848c1.967,0,3.506,1.539,3.506,3.506h12.912h0.256c-2.223-4.618-5.558-8.637-9.662-11.715H55.079z"/>
	<path display="inline" fill="#EBA2DE" d="M67.05,28.051h-8.208c-1.968,0-3.506,1.54-3.506,3.505c0,1.967-1.54,3.507-3.506,3.507
		c0,0-3.336,0-5.388,0h0.085c-2.993,0-5.471,2.479-5.471,5.472c0,2.993,2.478,5.472,5.471,5.472h-0.17
		c1.967,0,3.505,1.539,3.505,3.508c0,1.965,1.541,3.506,3.506,3.506c2.992,0,5.474,2.479,5.474,5.472l0.257,0.514
		c5.899-5.817,9.575-13.854,9.575-22.83c0-2.823-0.341-5.559-1.024-8.21"/>
	<path display="inline" fill="#EBA2DE" d="M17.883,61.314c1.026-0.6,1.624-1.712,1.624-2.993c0-1.967,1.54-3.507,3.506-3.507h0.085
		c2.993,0,5.473-2.48,5.473-5.473c0-2.993-2.48-5.472-5.473-5.472h0.086c-2.053,0-4.362,0-4.362,0c-2.993,0-5.473-2.479-5.473-5.473
		h6.926c0-1.967,1.539-3.505,3.506-3.505c1.967,0,3.506-1.539,3.506-3.506c0-1.966,1.54-3.506,3.505-3.506h0.514
		c2.993,0,5.472-2.479,5.472-5.473c0-2.992-2.479-5.472-5.472-5.472h0.085c-2.053,0-19.752,0-19.752,0L11.47,16.85
		c-4.105,5.387-6.584,12.143-6.584,19.41c0,10.347,4.874,19.496,12.484,25.312"/>
	<path display="inline" fill="#8C0072" d="M12.582,1.93C5.97,1.93,0.61,7.29,0.61,13.901c0,4.704,2.714,8.775,6.66,10.732
		c1.236,0.612,2.413,1.39,3.199,2.524l1.58,2.284c0.257,0.37,0.805,0.367,1.058-0.005l1.504-2.209
		c0.792-1.164,1.996-1.959,3.258-2.582c3.959-1.953,6.683-6.03,6.683-10.743C24.552,7.29,19.193,1.93,12.582,1.93z M12.582,18.177
		c-2.361,0-4.276-1.914-4.276-4.275s1.915-4.275,4.276-4.275c2.361,0,4.275,1.914,4.275,4.275S14.942,18.177,12.582,18.177z"/>
</g>
<g id="Layer_9" display="none">
	<path display="inline" fill="none" stroke="#C94C9B" stroke-width="1.5" stroke-linecap="round" stroke-miterlimit="10" d="
		M55.236,25.597l4.297-4.403"/>
	<path display="inline" fill="none" stroke="#C94C9B" stroke-width="1.5" stroke-linecap="round" stroke-miterlimit="10" d="
		M49.92,18.992l3.651-4.995"/>
	<path display="inline" fill="none" stroke="#C94C9B" stroke-width="1.5" stroke-linecap="round" stroke-miterlimit="10" d="
		M42.025,16.521l1.718-6.068"/>
	<path display="inline" fill="none" stroke="#C94C9B" stroke-width="1.5" stroke-linecap="round" stroke-miterlimit="10" d="
		M34.613,6.586v8.485"/>
	<path display="inline" fill="none" stroke="#C94C9B" stroke-width="1.5" stroke-linecap="round" stroke-miterlimit="10" d="
		M25.86,10.829l1.879,5.692"/>
	<path display="inline" fill="none" stroke="#C94C9B" stroke-width="1.5" stroke-linecap="round" stroke-miterlimit="10" d="
		M16.408,12.279l3.866,6.713"/>
	<path display="inline" fill="none" stroke="#C94C9B" stroke-width="1.5" stroke-linecap="round" stroke-miterlimit="10" d="
		M14.26,25.597l-4.189-4.403"/>
	<path display="inline" fill="#C94C9B" d="M59.117,32.521c6.659,1.559,7.343,2.376,8.686,4.523c1.343,2.148,2.148,5.371,1.88,8.861
		c-0.269,3.491-1.88,6.714-3.759,8.324c-1.88,1.612-4.104,2.512-7.935,2.512c-5.501,0-11.001,0.013-16.501,0.013
		c-1.665-0.054-3.062-1.396-3.062-3.061c0-1.665,1.342-3.062,3.062-3.062h-1.504c-1.611,0-2.899-1.289-2.899-2.9
		c0-1.61,1.287-2.898,2.897-2.9h-1.771c-1.61,0-2.899-1.288-2.899-2.9c0-1.61,1.289-2.898,2.899-2.898c1.611,0,1.665,0,1.665,0
		c-1.665,0-2.9-1.344-2.9-2.955c0-1.61,1.289-2.899,2.9-2.899h6.704c0.718-0.889,1.795-1.835,3.191-1.999
		C52.512,30.857,59.117,32.521,59.117,32.521z"/>
	<path display="inline" fill="none" stroke="#8C0072" stroke-width="1.5" stroke-linecap="round" stroke-miterlimit="10" d="
		M49.315,50.472c3.526,0,3.526,5.907,0,5.907c-3.527,0-7.559,0-7.559,0"/>
	<path display="inline" fill="none" stroke="#8C0072" stroke-width="1.5" stroke-linecap="round" stroke-miterlimit="10" d="
		M39.608,45.101c0,0,6.929,0,10.642,0c3.712,0,3.712,5.371,0,5.371c-3.713,0-8.762,0-8.762,0"/>
	<path display="inline" fill="none" stroke="#8C0072" stroke-width="1.5" stroke-linecap="round" stroke-miterlimit="10" d="
		M49.176,45.101c3.382,0,3.683-4.899,0.905-5.774"/>
	<path display="inline" fill="none" stroke="#8C0072" stroke-width="1.5" stroke-linecap="round" stroke-miterlimit="10" d="
		M39.608,39.193c0,0,1.469,0,2.686,0"/>
	<path display="inline" fill="none" stroke="#8C0072" stroke-width="1.5" stroke-linecap="round" stroke-miterlimit="10" d="
		M63.87,43.557c-5.405,0.388-8.173-4.251-8.173-4.251l-4.438-0.923l-1.135-0.159l-2.094,3.565c-0.874,1.455-2.729,1.946-4.184,1.07
		s-1.946-2.73-1.07-4.186c0,0,2.471-3.776,3.275-5.119c0.807-1.343,1.979-2.417,3.76-2.417"/>
	<path display="inline" fill="#EBA2DE" d="M11.021,32.521c-6.66,1.559-7.344,2.376-8.687,4.523
		c-1.342,2.148-2.148,5.371-1.879,8.861c0.269,3.491,1.879,6.714,3.76,8.324c1.879,1.611,4.104,2.512,7.934,2.512
		c5.5,0,11.001,0.013,16.501,0.013c1.666-0.054,3.061-1.396,3.061-3.061c0-1.665-1.342-3.062-3.061-3.062h1.504
		c1.611,0,2.9-1.289,2.9-2.9c0-1.61-1.288-2.898-2.898-2.9h1.77c1.611,0,2.9-1.288,2.9-2.9c0-1.61-1.289-2.898-2.9-2.898
		c-1.611,0-1.665,0-1.665,0c1.665,0,2.899-1.344,2.899-2.955c0-1.61-1.289-2.899-2.899-2.899h-6.705
		c-0.719-0.889-1.794-1.835-3.191-1.999C17.627,30.857,11.021,32.521,11.021,32.521z"/>
	<path display="inline" fill="none" stroke="#C94C9B" stroke-width="1.5" stroke-linecap="round" stroke-miterlimit="10" d="
		M20.823,50.472c-3.527,0-3.527,5.907,0,5.907s7.559,0,7.559,0"/>
	<path display="inline" fill="none" stroke="#C94C9B" stroke-width="1.5" stroke-linecap="round" stroke-miterlimit="10" d="
		M30.53,45.101c0,0-6.928,0-10.642,0s-3.713,5.371,0,5.371s8.762,0,8.762,0"/>
	<path display="inline" fill="none" stroke="#C94C9B" stroke-width="1.5" stroke-linecap="round" stroke-miterlimit="10" d="
		M20.963,45.101c-3.381,0-3.684-4.899-0.905-5.774"/>
	<path display="inline" fill="none" stroke="#C94C9B" stroke-width="1.5" stroke-linecap="round" stroke-miterlimit="10" d="
		M30.53,39.193c0,0-1.469,0-2.686,0"/>
	<path display="inline" fill="none" stroke="#C94C9B" stroke-width="1.5" stroke-linecap="round" stroke-miterlimit="10" d="
		M6.269,43.557c5.406,0.388,8.173-4.251,8.173-4.251l4.438-0.923l1.135-0.159l2.093,3.565c0.875,1.455,2.73,1.946,4.184,1.07
		c1.455-0.876,1.946-2.73,1.07-4.186c0,0-2.47-3.776-3.275-5.119c-0.806-1.343-1.979-2.417-3.76-2.417"/>
</g>
<g id="Layer_11" display="none">
	<path display="inline" fill="#C0E0FF" d="M35.449,25.102c-0.092-0.461-0.369-2.673-2.304-4.056
		c-0.369-0.276-1.844-1.29-3.503-0.921c-1.382,0.369-2.212,1.475-2.304,1.659c-2.304,3.41,1.751,10.322,4.24,14.47
		c0.922,1.566,1.843,2.857,2.857,4.146c1.383,1.66,3.133,3.596,4.147,4.793c0.738,0.83,0.83,1.752,0.83,2.305
		c0,4.332,0,23.41,0,23.502h22.581c0-0.092,0-14.931,0-21.014c0-1.752,0.368-3.41,1.013-4.977c0.094-0.186,0.186-0.369,0.277-0.646
		c1.751-4.517,2.857-4.793,2.58-11.798V16.714c0-2.212-1.658-3.963-3.778-3.963s-3.778,1.751-3.778,3.963
		c0-2.212-1.66-3.963-3.779-3.963c-2.121,0-3.779,1.751-3.779,3.963c0-2.212-1.659-3.963-3.777-3.963
		c-2.121,0-3.779,1.751-3.779,3.963v3.963v-3.687c0.184-2.304-1.659-4.147-3.779-4.147c-2.212,0-3.963,1.843-3.963,4.147v17.972"/>
	
		<path display="inline" fill="none" stroke="#58A6FF" stroke-width="2" stroke-linecap="round" stroke-linejoin="round" stroke-miterlimit="10" d="
		M75.818,5.47l-7.006,4.424"/>
	
		<path display="inline" fill="none" stroke="#58A6FF" stroke-width="2" stroke-linecap="round" stroke-linejoin="round" stroke-miterlimit="10" d="
		M65.402-5.037l-4.147,7.189"/>
	
		<path display="inline" fill="none" stroke="#58A6FF" stroke-width="2" stroke-linecap="round" stroke-linejoin="round" stroke-miterlimit="10" d="
		M50.84-9l-0.092,8.387"/>
	
		<path display="inline" fill="none" stroke="#58A6FF" stroke-width="2" stroke-linecap="round" stroke-linejoin="round" stroke-miterlimit="10" d="
		M25.679,5.47l7.005,4.424"/>
	
		<path display="inline" fill="none" stroke="#58A6FF" stroke-width="2" stroke-linecap="round" stroke-linejoin="round" stroke-miterlimit="10" d="
		M36.002-5.037l4.24,7.189"/>
	<path display="inline" fill="#58A6FF" d="M23.467,34.871c4.148-2.488,13.733-7.466,27.006-7.558
		c13.271-0.092,21.75,5.161,25.897,7.558v-8.104c-4.147-2.396-14.192-7.472-27.466-7.379c-13.271,0.092-22.948,5.069-27.004,7.558"
		/>
	<path display="inline" fill="#C0E0FF" d="M38.582,45.193c0.738,0.83,0.83,1.752,0.83,2.305c0,4.332,0,23.41,0,23.502h22.581
		c0-0.092,0-14.931,0-21.014c0-1.752,0.368-3.41,1.013-4.977c0.092-0.186,0.186-0.369,0.277-0.646
		c1.751-4.517,2.857-4.793,2.58-11.798V16.714c0-2.212-1.659-3.963-3.778-3.963c-2.12,0-3.778,1.751-3.778,3.963
		c0-2.212-1.66-3.963-3.779-3.963c-2.121,0-3.779,1.751-3.779,3.963c0-2.212-1.659-3.963-3.779-3.963
		c-2.119,0-3.777,1.751-3.777,3.963v3.963v-3.687c0.184-2.304-1.659-4.147-3.779-4.147c-2.212,0-3.963,1.843-3.963,4.147v17.972"/>
	<path display="inline" fill="#58A6FF" d="M82.736,12.306L67.55,46.1l8.827,3.967l15.188-33.794L82.736,12.306z"/>
	<path display="inline" fill="#58A6FF" d="M16.163,12.219l-8.827,3.967L22.523,49.98l8.827-3.967L16.163,12.219z"/>
	<path display="inline" fill="#58A6FF" d="M10.478,21.896L3,25.256l9.822,21.857l7.479-3.361L10.478,21.896z"/>
</g>
<g id="Layer_12" display="none">
	<path display="inline" fill="#8C0072" d="M6.522,15.478c0,0-1.119-2.171-1.645-2.698c-0.526-0.526-2.632-1.579-2.632-1.579
		s2.237-1.184,2.829-1.71c0.526-0.527,1.514-2.566,1.514-2.566s0.987,2.105,1.513,2.631c0.592,0.593,2.763,1.711,2.763,1.711
		s-2.171,1.118-2.697,1.645C7.641,13.372,6.522,15.478,6.522,15.478z"/>
	<path display="inline" fill="#8C0072" d="M10.075,54.562c0,0-2.04-3.948-3.026-4.936c-0.987-0.986-4.803-2.895-4.803-2.895
		s4.013-2.105,5.066-3.159c0.921-0.92,2.763-4.671,2.763-4.671s1.842,3.816,2.764,4.738c0.987,0.986,5.066,3.092,5.066,3.092
		s-3.881,1.974-4.869,2.962C12.049,50.68,10.075,54.562,10.075,54.562z"/>
	<path display="inline" fill="#EBA2DE" d="M60.805,42.126H20.866v26.779h39.939V42.126z"/>
	<path display="inline" fill="none" stroke="#C94C9B" stroke-width="2" stroke-miterlimit="10" d="M40.803,42.126v26.779"/>
	<path display="inline" fill="#EBA2DE" d="M49.846,2.618L7.854,22.63l3.312,6.95L53.157,9.567L49.846,2.618z"/>
	<path display="inline" fill="none" stroke="#C94C9B" stroke-width="2" stroke-miterlimit="10" d="M28.762,12.648
		c0,0,1.975-12.962,8.686-10.527c2.435,0.856,4.014,4.475-1.711,7.238C33.236,10.477,28.762,12.648,28.762,12.648z"/>
	<path display="inline" fill="none" stroke="#C94C9B" stroke-width="2" stroke-miterlimit="10" d="M28.894,12.583
		c0,0-11.317-6.58-13.686,0.131c-0.855,2.435,0.987,5.922,6.711,3.225C24.354,14.754,28.894,12.583,28.894,12.583z"/>
	<path display="inline" fill="none" stroke="#C94C9B" stroke-width="2" stroke-miterlimit="10" d="M28.894,12.583l3.29,6.909"/>
	<path display="inline" fill="#8C0072" d="M47.976,25.939c0,0-0.987-1.974-1.515-2.435c-0.46-0.461-2.368-1.448-2.368-1.448
		s1.974-1.052,2.5-1.579c0.461-0.46,1.383-2.303,1.383-2.303s0.92,1.908,1.381,2.369c0.526,0.527,2.501,1.513,2.501,1.513
		s-1.909,0.987-2.436,1.448C48.962,24.031,47.976,25.939,47.976,25.939z"/>
	<path display="inline" fill="#8C0072" d="M42.646,36.796c0,0-0.658-1.316-0.987-1.645s-1.645-0.986-1.645-0.986
		s1.382-0.724,1.71-1.053c0.329-0.329,0.922-1.579,0.922-1.579s0.591,1.25,0.92,1.579s1.712,1.053,1.712,1.053
		s-1.316,0.657-1.646,0.986S42.646,36.796,42.646,36.796z"/>
	<path display="inline" fill="none" stroke="#8C0072" stroke-width="2" stroke-linecap="round" stroke-miterlimit="10" d="
		M61.924,29.624l5.066,3.553"/>
	<path display="inline" fill="none" stroke="#8C0072" stroke-width="2" stroke-linecap="round" stroke-miterlimit="10" d="
		M66.398,13.175l-4.475,3.948"/>
</g>
<g id="Layer_13" display="none">
	<path display="inline" fill="#C94C9B" d="M47.097,69.201H14.631c-1.071,0-1.914-0.844-1.914-1.914V3.581
		c0-1.072,0.843-1.914,1.914-1.914h32.466c1.072,0,1.914,0.842,1.914,1.914v63.707C49.011,68.357,48.092,69.201,47.097,69.201z"/>
	<path display="inline" fill="none" stroke="#EBA2DE" stroke-miterlimit="10" d="M24.892,5.955H36.76"/>
	<path display="inline" fill="none" stroke="#EBA2DE" stroke-miterlimit="10" d="M30.787,66.061c1.185,0,2.145-0.96,2.145-2.143
		c0-1.185-0.96-2.146-2.145-2.146c-1.184,0-2.144,0.961-2.144,2.146C28.643,65.101,29.603,66.061,30.787,66.061z"/>
	<path display="inline" fill="#EBA2DE" stroke="#8C0072" stroke-width="2" stroke-miterlimit="10" d="M46.714,42.171
		c6.47,0,11.715-5.244,11.715-11.714s-5.245-11.715-11.715-11.715s-11.716,5.245-11.716,11.715S40.244,42.171,46.714,42.171z"/>
	<path display="inline" fill="none" stroke="#8C0072" stroke-width="2" stroke-linecap="round" stroke-miterlimit="10" d="
		M54.601,39.186l9.954,9.035"/>
</g>
<g id="Layer_14" display="none">
	<path display="inline" fill="#C94C9B" d="M35.663,1.667C20.385,1.667,8,14.006,8,29.227c0,11.888,7.557,22.02,18.146,25.885
		c1.179,0.431,2.264,1.108,3.074,2.067l0.75,0.887l4.92,9.733c0.337,0.669,1.297,0.664,1.627-0.01l4.819-9.811l0.587-0.705
		c0.821-0.989,1.934-1.685,3.144-2.121c10.648-3.834,18.259-13.995,18.259-25.926C63.326,14.006,50.941,1.667,35.663,1.667z
		 M35.663,39.069c-5.456,0-9.879-4.406-9.879-9.842s4.423-9.843,9.879-9.843s9.88,4.407,9.88,9.843S41.119,39.069,35.663,39.069z"/>
</g>
<g id="Layer_15" display="none">
</g>
<g id="Layer_16" display="none">
</g>
<g id="CP_1_" display="none">
</g>
</svg>
